<svg width="1024" height="1024" viewBox="0 0 1024 1024" fill="none" xmlns="http://www.w3.org/2000/svg">
<rect width="1024" height="1024" fill="url(#paint0_linear_1_2)"/>
<g style="mix-blend-mode:plus-lighter">
<path d="M162 523C162 504.144 162 494.716 167.858 488.858C173.716 483 183.144 483 202 483H822C840.856 483 850.284 483 856.142 488.858C862 494.716 862 504.144 862 523V583H162V523Z" fill="#D9D9D9"/>
</g>
<g style="mix-blend-mode:plus-lighter">
<path d="M287 406C287 387.144 287 377.716 292.858 371.858C298.716 366 308.144 366 327 366H822C840.856 366 850.284 366 856.142 371.858C862 377.716 862 387.144 862 406V426C862 444.856 862 454.284 856.142 460.142C850.284 466 840.856 466 822 466H327C308.144 466 298.716 466 292.858 460.142C287 454.284 287 444.856 287 426V406Z" fill="#D9D9D9"/>
</g>
<g style="mix-blend-mode:plus-lighter">
<path d="M162 583H262V713C262 724.046 253.046 733 242 733H182C170.954 733 162 724.046 162 713V583Z" fill="#D9D9D9"/>
</g>
<g style="mix-blend-mode:plus-lighter">
<path d="M162 311C162 299.954 170.954 291 182 291H242C253.046 291 262 299.954 262 311V446C262 457.046 253.046 466 242 466H182C170.954 466 162 457.046 162 446V311Z" fill="#D9D9D9"/>
</g>
<g style="mix-blend-mode:plus-lighter">
<path d="M762 583H862V713C862 724.046 853.046 733 842 733H782C770.954 733 762 724.046 762 713V583Z" fill="#D9D9D9"/>
</g>
<defs>
<linearGradient id="paint0_linear_1_2" x1="1024" y1="-3.05176e-05" x2="512" y2="1024" gradientUnits="userSpaceOnUse">
<stop stop-color="#47BDFF"/>
<stop offset="1" stop-color="#0A4B70"/>
</linearGradient>
</defs>
</svg>
