<svg width="1024" height="1024" viewBox="0 0 1024 1024" fill="none" xmlns="http://www.w3.org/2000/svg">
<rect width="1024" height="1024" fill="url(#paint0_linear_1_2)"/>
<g style="mix-blend-mode:plus-lighter">
<path d="M162 583C162 535.86 162 512.289 176.645 497.645C191.289 483 214.86 483 262 483H762C809.14 483 832.711 483 847.355 497.645C862 512.289 862 535.86 862 583V583H162V583Z" fill="#D9D9D9"/>
</g>
<g style="mix-blend-mode:plus-lighter">
<rect x="287" y="366" width="575" height="100" rx="50" fill="#D9D9D9"/>
</g>
<g style="mix-blend-mode:plus-lighter">
<path d="M162 583H262V683C262 710.614 239.614 733 212 733V733C184.386 733 162 710.614 162 683V583Z" fill="#D9D9D9"/>
</g>
<g style="mix-blend-mode:plus-lighter">
<rect x="162" y="291" width="100" height="175" rx="50" fill="#D9D9D9"/>
</g>
<g style="mix-blend-mode:plus-lighter">
<path d="M762 583H862V683C862 710.614 839.614 733 812 733V733C784.386 733 762 710.614 762 683V583Z" fill="#D9D9D9"/>
</g>
<defs>
<linearGradient id="paint0_linear_1_2" x1="1024" y1="-3.05176e-05" x2="512" y2="1024" gradientUnits="userSpaceOnUse">
<stop stop-color="#47BDFF"/>
<stop offset="1" stop-color="#0A4B70"/>
</linearGradient>
</defs>
</svg>
