<svg width="1280" height="640" viewBox="0 0 1280 640" fill="none" xmlns="http://www.w3.org/2000/svg">
<rect width="1280" height="640" fill="url(#paint0_linear_4_2)"/>
<g style="mix-blend-mode:plus-lighter">
<path d="M290 391C290 343.86 290 320.289 304.645 305.645C319.289 291 342.86 291 390 291H890C937.14 291 960.711 291 975.355 305.645C990 320.289 990 343.86 990 391V391H290V391Z" fill="#D9D9D9"/>
</g>
<g style="mix-blend-mode:plus-lighter">
<rect x="415" y="174" width="575" height="100" rx="50" fill="#D9D9D9"/>
</g>
<g style="mix-blend-mode:plus-lighter">
<path d="M290 391H390V491C390 518.614 367.614 541 340 541V541C312.386 541 290 518.614 290 491V391Z" fill="#D9D9D9"/>
</g>
<g style="mix-blend-mode:plus-lighter">
<rect x="290" y="99" width="100" height="175" rx="50" fill="#D9D9D9"/>
</g>
<g style="mix-blend-mode:plus-lighter">
<path d="M890 391H990V491C990 518.614 967.614 541 940 541V541C912.386 541 890 518.614 890 491V391Z" fill="#D9D9D9"/>
</g>
<defs>
<linearGradient id="paint0_linear_4_2" x1="1280" y1="-1.90735e-05" x2="1091.76" y2="752.941" gradientUnits="userSpaceOnUse">
<stop stop-color="#47BDFF"/>
<stop offset="1" stop-color="#0A4B70"/>
</linearGradient>
</defs>
</svg>
