<svg width="1280" height="640" viewBox="0 0 1280 640" fill="none" xmlns="http://www.w3.org/2000/svg">
<rect width="1280" height="640" fill="url(#paint0_linear_4_2)"/>
<g style="mix-blend-mode:plus-lighter">
<path d="M290 331C290 312.144 290 302.716 295.858 296.858C301.716 291 311.144 291 330 291H950C968.856 291 978.284 291 984.142 296.858C990 302.716 990 312.144 990 331V391H290V331Z" fill="#D9D9D9"/>
</g>
<g style="mix-blend-mode:plus-lighter">
<path d="M415 214C415 195.144 415 185.716 420.858 179.858C426.716 174 436.144 174 455 174H950C968.856 174 978.284 174 984.142 179.858C990 185.716 990 195.144 990 214V234C990 252.856 990 262.284 984.142 268.142C978.284 274 968.856 274 950 274H455C436.144 274 426.716 274 420.858 268.142C415 262.284 415 252.856 415 234V214Z" fill="#D9D9D9"/>
</g>
<g style="mix-blend-mode:plus-lighter">
<path d="M290 391H390V521C390 532.046 381.046 541 370 541H310C298.954 541 290 532.046 290 521V391Z" fill="#D9D9D9"/>
</g>
<g style="mix-blend-mode:plus-lighter">
<path d="M290 119C290 107.954 298.954 99 310 99H370C381.046 99 390 107.954 390 119V254C390 265.046 381.046 274 370 274H310C298.954 274 290 265.046 290 254V119Z" fill="#D9D9D9"/>
</g>
<g style="mix-blend-mode:plus-lighter">
<path d="M890 391H990V521C990 532.046 981.046 541 970 541H910C898.954 541 890 532.046 890 521V391Z" fill="#D9D9D9"/>
</g>
<defs>
<linearGradient id="paint0_linear_4_2" x1="1280" y1="-1.90735e-05" x2="1091.76" y2="752.941" gradientUnits="userSpaceOnUse">
<stop stop-color="#47BDFF"/>
<stop offset="1" stop-color="#0A4B70"/>
</linearGradient>
</defs>
</svg>
